<?xml version="1.0" standalone="no"?>
<!DOCTYPE svg PUBLIC "-//W3C//DTD SVG 20010904//EN"
 "http://www.w3.org/TR/2001/REC-SVG-20010904/DTD/svg10.dtd">
<svg version="1.0" xmlns="http://www.w3.org/2000/svg"
 width="512.000000pt" height="512.000000pt" viewBox="0 0 512.000000 512.000000"
 preserveAspectRatio="xMidYMid meet">

<g transform="translate(0.000000,512.000000) scale(0.100000,-0.100000)"
fill="#000000" stroke="none">
<path d="M1120 4684 c-330 -60 -555 -176 -761 -390 -332 -347 -442 -831 -293
-1289 36 -108 115 -261 184 -354 34 -45 302 -320 661 -676 332 -330 811 -805
1064 -1057 311 -309 472 -462 497 -472 48 -20 128 -20 176 0 25 10 185 162
492 467 250 249 729 724 1064 1057 357 354 632 636 664 679 200 269 286 616
236 948 -39 265 -156 502 -343 696 -116 120 -220 196 -365 268 -173 85 -313
119 -511 126 -181 7 -308 -11 -461 -62 -233 -78 -339 -151 -635 -438 -121
-117 -223 -212 -229 -212 -5 0 -112 100 -238 222 -278 267 -387 345 -590 418
-146 53 -227 66 -412 70 -96 2 -186 2 -200 -1z"/>
</g>
</svg>
